<?xml version="1.0" standalone="no"?>
<!DOCTYPE svg PUBLIC "-//W3C//DTD SVG 20010904//EN"
 "http://www.w3.org/TR/2001/REC-SVG-20010904/DTD/svg10.dtd">
<svg version="1.0" xmlns="http://www.w3.org/2000/svg"
 width="359.000000pt" height="359.000000pt" viewBox="0 0 359.000000 359.000000"
 preserveAspectRatio="xMidYMid meet">
<metadata>
Created by potrace 1.11, written by Peter Selinger 2001-2013
</metadata>
<g transform="translate(0.000000,359.000000) scale(0.100000,-0.100000)"
fill="#000000" stroke="none">
<path d="M994 2968 c-15 -4 -31 -5 -36 -2 -4 3 -8 1 -8 -3 0 -5 -18 -16 -40
-26 -39 -17 -122 -93 -128 -119 -2 -7 -9 -16 -15 -20 -7 -4 -8 -8 -3 -8 5 0 4
-6 -2 -12 -5 -7 -13 -29 -17 -48 -5 -19 -8 -344 -8 -722 l1 -688 -34 0 c-19 0
-34 5 -34 10 0 7 -7 7 -17 2 -16 -8 -41 -11 -128 -15 -16 -1 -32 -5 -35 -8 -3
-4 -18 -9 -35 -10 -16 -2 -33 -8 -36 -12 -3 -4 -16 -9 -27 -10 -12 -1 -22 -5
-22 -10 0 -4 -4 -5 -10 -2 -5 3 -10 2 -10 -3 0 -8 -28 -20 -47 -20 -3 0 -9 -4
-12 -9 -6 -8 -54 -41 -67 -46 -13 -4 -124 -118 -124 -127 0 -4 -4 -10 -8 -12
-12 -5 -55 -99 -59 -128 -2 -14 -8 -37 -12 -51 -5 -15 -5 -31 -1 -35 5 -5 10
-22 13 -39 2 -16 10 -43 17 -60 7 -16 14 -33 14 -36 2 -11 106 -103 106 -94 0
3 10 0 23 -7 58 -32 95 -38 237 -37 97 1 156 5 178 15 18 7 33 13 35 13 7 -1
46 15 70 27 15 8 27 12 27 9 0 -3 10 3 22 15 12 11 25 21 30 21 4 1 12 2 18 3
5 0 16 10 24 21 9 11 16 17 16 13 0 -12 140 134 140 147 0 6 8 20 18 31 10 10
19 22 20 27 1 4 2 8 3 10 0 1 3 13 5 27 2 13 8 27 12 30 4 3 7 271 7 595 1
591 5 702 28 717 7 4 9 8 4 8 -12 0 22 60 34 60 6 0 7 5 4 10 -3 6 1 10 9 10
9 0 16 4 16 8 0 22 68 30 222 25 90 -2 172 -4 183 -3 11 1 34 3 50 4 17 0 33
4 36 9 3 4 20 9 37 10 18 1 32 6 32 11 0 4 7 6 15 2 8 -3 15 -1 15 4 0 5 10
12 23 15 12 4 36 18 54 31 17 13 34 24 38 24 6 0 84 80 121 124 16 18 18 26 8
30 -7 3 -14 1 -16 -5 -4 -11 -208 -22 -208 -11 0 4 -24 8 -53 10 -28 1 -53 6
-55 12 -2 5 -10 6 -18 3 -8 -3 -14 0 -14 7 0 6 -4 9 -9 6 -8 -5 -86 29 -101
44 -3 3 -12 6 -20 8 -8 2 -16 8 -18 13 -2 5 -10 9 -18 9 -8 0 -14 5 -14 10 0
6 -3 9 -7 8 -9 -3 -55 27 -87 57 -12 11 -24 20 -26 20 -3 1 -32 19 -65 41 -33
23 -78 47 -100 55 -22 8 -42 16 -45 19 -8 8 -84 7 -116 -2z"/>
<path d="M1606 2033 c-1 -1 -15 -4 -31 -7 -16 -3 -33 -12 -38 -21 -4 -8 -12
-13 -17 -10 -5 3 -11 -4 -15 -15 -3 -11 -11 -20 -16 -20 -6 0 -8 -4 -4 -9 3
-5 -1 -15 -8 -23 -16 -16 -13 -82 5 -118 16 -31 54 -70 68 -70 5 0 10 -4 10
-8 0 -5 8 -9 18 -10 36 -3 1848 -3 1863 1 10 1 24 9 33 16 9 7 16 10 16 5 0
-4 13 10 29 32 34 45 45 120 25 159 -7 14 -10 25 -6 25 4 0 -6 11 -23 25 -43
36 -49 40 -65 44 -15 3 -1840 8 -1844 4z"/>
<path d="M1583 1504 c-18 -7 -33 -10 -33 -7 0 2 -16 -12 -35 -33 -19 -20 -35
-43 -35 -50 0 -8 -5 -14 -11 -14 -6 0 -8 -8 -5 -17 3 -10 7 -37 8 -60 2 -24 9
-45 16 -48 6 -2 12 -10 12 -18 0 -7 18 -23 40 -36 40 -22 41 -22 555 -24 283
-1 515 0 515 3 0 3 18 14 40 24 22 10 37 22 35 26 -2 4 4 16 13 26 22 23 24
28 25 67 1 45 -15 85 -48 120 -19 21 -35 35 -35 32 0 -3 -10 0 -22 6 -32 17
-987 19 -1035 3z"/>
<path d="M1590 989 c0 -4 -11 -10 -25 -13 -26 -7 -75 -50 -75 -66 0 -6 -4 -10
-8 -10 -9 0 -10 -4 -12 -60 -1 -45 3 -64 19 -84 7 -9 11 -16 7 -16 -12 0 33
-38 53 -45 12 -3 21 -9 21 -13 0 -4 305 -7 677 -7 531 0 681 3 691 13 8 7 17
10 21 8 4 -3 16 7 27 21 10 15 24 31 29 37 15 17 27 126 13 126 -4 0 -8 9 -8
20 0 11 -5 20 -12 20 -6 0 -9 3 -5 6 7 7 -15 33 -24 28 -4 -2 -12 3 -19 11 -7
8 -21 15 -31 15 -11 0 -19 3 -19 8 0 4 -297 7 -660 7 -363 0 -660 -3 -660 -6z"/>
</g>
</svg>
