<?xml version="1.0" standalone="no"?>
<!DOCTYPE svg PUBLIC "-//W3C//DTD SVG 20010904//EN"
 "http://www.w3.org/TR/2001/REC-SVG-20010904/DTD/svg10.dtd">
<svg version="1.0" xmlns="http://www.w3.org/2000/svg"
 width="700.000000pt" height="700.000000pt" viewBox="0 0 700.000000 700.000000"
 preserveAspectRatio="xMidYMid meet">
<metadata>
Created by potrace 1.11, written by Peter Selinger 2001-2013
</metadata>
<g transform="translate(0.000000,700.000000) scale(0.100000,-0.100000)"
fill="#000000" stroke="none">
<path d="M3068 6995 c-2 -1 -73 -6 -158 -9 -85 -4 -184 -9 -220 -11 -36 -2
-114 -6 -175 -10 -179 -10 -330 -21 -405 -30 -19 -2 -69 -7 -110 -10 -41 -3
-91 -8 -110 -10 -19 -2 -66 -7 -105 -10 -38 -3 -81 -8 -95 -10 -26 -4 -187
-22 -275 -30 -27 -3 -66 -7 -85 -10 -19 -3 -51 -7 -70 -10 -37 -5 -245 -33
-295 -40 -58 -8 -111 -16 -165 -25 -30 -5 -73 -12 -95 -15 -84 -12 -272 -46
-315 -57 -163 -42 -318 -194 -366 -358 -60 -204 34 -456 215 -575 l41 -28 -5
-81 c-4 -45 -8 -103 -10 -131 -29 -364 -23 -1495 9 -1770 3 -22 8 -69 11 -105
3 -36 8 -81 10 -100 3 -19 7 -55 10 -80 6 -56 14 -108 20 -140 3 -13 7 -42 11
-65 11 -73 85 -348 115 -425 102 -263 323 -528 580 -695 142 -93 259 -142 504
-211 102 -29 347 -77 500 -99 23 -3 51 -7 64 -10 12 -2 50 -7 84 -10 34 -3 73
-8 87 -10 14 -2 54 -7 90 -10 36 -3 76 -8 90 -10 14 -2 77 -7 140 -11 63 -3
123 -8 134 -10 18 -3 110 -7 454 -19 51 -1 95 -5 98 -8 3 -3 6 -87 6 -187 l0
-182 -38 -41 c-22 -22 -48 -50 -59 -62 -11 -12 -47 -51 -80 -87 -33 -35 -98
-106 -145 -157 -47 -51 -101 -110 -120 -130 -33 -35 -208 -224 -259 -280 -13
-14 -68 -73 -121 -131 -159 -171 -170 -183 -197 -223 -73 -106 8 -259 140
-263 90 -3 102 5 277 196 52 58 122 134 156 170 70 75 182 196 204 220 109
119 237 258 286 309 l61 64 8 -59 c4 -32 9 -67 11 -79 2 -11 7 -33 9 -50 3
-16 8 -37 10 -45 2 -8 6 -37 10 -64 3 -27 8 -52 9 -55 2 -3 7 -28 10 -56 6
-46 22 -141 47 -272 13 -65 44 -111 94 -140 78 -44 185 -20 235 54 27 39 33
112 18 198 -22 120 -48 288 -46 291 3 2 161 -150 513 -495 174 -170 192 -183
260 -187 100 -6 181 63 189 160 5 58 -19 107 -89 181 -32 33 -85 89 -119 125
-34 36 -129 137 -211 224 -83 88 -186 198 -230 245 -44 47 -114 121 -156 166
-42 44 -105 111 -140 149 -35 38 -72 77 -81 85 -16 14 -18 37 -18 213 0 182 1
198 18 199 9 1 51 2 92 4 360 13 431 16 447 19 10 2 68 7 128 11 61 3 124 8
140 10 106 10 164 16 195 20 19 3 55 8 80 11 107 12 155 19 215 30 10 2 37 6
60 10 153 22 468 100 615 152 333 117 678 454 828 809 26 62 85 253 97 314 2
11 7 30 11 42 4 12 8 31 10 42 1 11 7 49 14 85 7 36 14 78 16 93 2 15 5 44 8
65 10 68 17 126 20 172 2 25 7 74 10 110 24 258 30 464 30 955 0 467 -7 712
-29 977 l-6 67 38 25 c149 97 246 285 238 459 -11 246 -203 451 -461 491 -21
4 -66 11 -99 17 -33 6 -69 12 -80 14 -56 7 -115 17 -160 25 -27 5 -72 12 -98
15 -27 4 -56 8 -65 9 -10 2 -44 7 -77 11 -32 4 -66 8 -75 10 -8 1 -40 6 -71 9
-31 4 -65 8 -75 10 -11 2 -46 7 -79 10 -33 4 -73 9 -90 11 -16 2 -57 7 -90 10
-33 3 -73 8 -90 10 -16 3 -52 7 -80 10 -27 3 -68 7 -90 10 -36 4 -128 13 -210
20 -16 1 -73 5 -125 9 -52 4 -106 9 -120 11 -38 5 -219 17 -470 30 -69 4 -141
9 -160 11 -39 5 -1057 13 -1062 9z m1077 -1100 c132 -4 265 -9 295 -10 89 -4
301 -16 355 -20 28 -2 97 -7 155 -10 58 -4 119 -9 135 -11 17 -2 64 -6 105 -9
41 -3 95 -8 120 -10 25 -3 74 -7 110 -11 36 -3 76 -7 90 -9 14 -2 54 -6 90
-10 73 -6 132 -13 170 -20 14 -2 48 -7 75 -10 73 -7 126 -14 160 -20 17 -3 46
-8 65 -11 19 -3 46 -7 60 -9 49 -7 164 -26 166 -28 9 -12 45 -127 57 -182 34
-153 43 -1268 12 -1590 -2 -22 -6 -69 -9 -105 -9 -100 -16 -169 -26 -240 -5
-36 -12 -81 -14 -100 -24 -168 -90 -425 -138 -527 -123 -267 -430 -533 -678
-588 -8 -2 -53 -12 -100 -23 -82 -19 -143 -31 -185 -37 -11 -2 -76 -12 -145
-23 -121 -20 -176 -27 -290 -37 -30 -3 -62 -7 -70 -10 -8 -2 -55 -7 -105 -10
-49 -4 -106 -8 -125 -10 -39 -4 -175 -12 -320 -20 -481 -27 -1185 -18 -1640
20 -36 3 -92 8 -125 10 -60 5 -204 21 -280 31 -22 3 -53 7 -70 9 -39 4 -233
33 -265 40 -14 3 -50 10 -80 15 -288 56 -427 118 -595 264 -178 156 -285 319
-335 511 -4 17 -19 73 -33 125 -22 85 -33 133 -42 195 -2 11 -7 43 -11 70 -4
28 -9 57 -10 65 -3 14 -10 77 -19 165 -2 22 -7 67 -10 100 -19 177 -29 471
-28 865 1 666 10 805 65 950 25 64 28 69 54 74 27 5 92 15 139 22 22 3 65 9
95 14 30 5 78 12 105 15 28 4 61 8 75 10 74 11 193 25 255 30 39 3 81 8 95 10
31 5 101 12 200 20 41 3 95 8 120 10 70 8 157 15 250 20 47 3 108 7 135 10
152 12 379 22 715 30 146 4 266 8 267 9 6 5 753 -3 958 -9z"/>
<path d="M2672 5455 c-103 -31 -195 -114 -234 -214 l-22 -56 -1 -785 -2 -785
-64 -1 c-155 -3 -242 -20 -369 -72 -156 -64 -286 -178 -354 -310 -27 -50 -30
-68 -30 -147 -1 -75 3 -98 23 -137 113 -228 491 -272 836 -96 181 91 304 200
358 317 l30 64 2 686 c2 452 6 704 13 738 37 173 95 208 351 212 62 1 144 6
181 11 180 26 361 137 498 306 23 29 42 54 42 57 0 3 -29 -3 -64 -13 -36 -10
-86 -22 -113 -26 -63 -9 -247 -11 -298 -2 -73 13 -177 49 -249 87 -39 21 -119
64 -178 95 -58 31 -129 63 -158 72 -58 17 -137 17 -198 -1z"/>
<path d="M3459 4588 c-143 -25 -220 -194 -146 -321 33 -56 86 -94 147 -105 25
-4 398 -7 830 -6 717 1 788 2 825 18 137 59 177 230 79 344 -67 79 -22 75
-906 76 -432 1 -805 -2 -829 -6z"/>
<path d="M3478 3935 c-2 -2 -18 -5 -36 -8 -59 -9 -126 -74 -149 -143 -14 -41
-9 -124 10 -160 22 -43 66 -84 112 -105 36 -16 75 -18 397 -19 234 0 373 3
402 11 133 33 201 201 129 317 -15 25 -40 54 -54 64 -57 43 -86 46 -455 46
-194 0 -354 -2 -356 -3z"/>
<path d="M3510 3279 c-96 -7 -148 -33 -189 -95 -17 -26 -32 -55 -32 -63 -8
-109 2 -150 48 -201 15 -18 46 -42 68 -53 39 -21 50 -21 628 -22 643 -1 647 0
706 57 122 119 75 326 -83 369 -41 11 -1013 18 -1146 8z"/>
</g>
</svg>
